<svg width="14" height="17" viewBox="0 0 14 17" fill="none" xmlns="http://www.w3.org/2000/svg">
<path d="M2.94331 13.1643C2.675 12.7383 2.40669 11.9929 1.87007 11.0344C1.60176 10.5019 0.796839 9.43693 0.52853 9.01094C0.349658 8.58495 0.349658 8.37196 0.439094 7.94597C0.52853 7.30699 1.06515 6.7745 1.6912 6.7745C2.13838 6.7745 2.58556 7.20049 2.94331 7.51998C3.12218 7.73298 3.39049 8.15897 3.56936 8.37196C3.74823 8.58496 3.74823 8.69145 3.9271 8.90445C4.10598 9.22394 4.19541 9.43693 4.10598 9.01094C4.01654 8.47846 3.9271 7.62648 3.74823 6.7745C3.6588 6.13552 3.56936 6.02902 3.47992 5.60303C3.39049 5.07054 3.30105 4.75105 3.21162 4.21857C3.12218 3.89907 3.03274 3.0471 2.94331 2.62111C2.85387 2.08862 2.85387 1.13014 3.21162 0.704154C3.47992 0.384662 4.01654 0.278165 4.37429 0.49116C4.82147 0.810652 5.08978 1.55613 5.17921 1.87563C5.35808 2.40811 5.53696 3.15359 5.62639 4.00557C5.80526 5.07054 6.07357 6.668 6.07357 6.9875C6.07357 6.56151 5.98414 5.81603 6.07357 5.39004C6.16301 5.07054 6.34188 4.64456 6.69963 4.53806C6.96793 4.43156 7.23624 4.43156 7.50455 4.43156C7.77286 4.53806 8.04117 4.75105 8.22004 4.96405C8.57779 5.60303 8.57779 6.9875 8.57779 6.881C8.66722 6.45501 8.66722 5.60303 8.84609 5.17704C8.93553 4.96405 9.29327 4.75105 9.47215 4.64455C9.74046 4.53806 10.0982 4.53806 10.3665 4.64455C10.5454 4.64455 10.9031 4.96405 10.9926 5.17704C11.1714 5.49653 11.2609 6.56151 11.3503 6.9875C11.3503 7.09399 11.4397 6.56151 11.6186 6.24201C11.9764 5.60303 13.2285 5.39004 13.3179 6.881C13.3179 7.62648 13.3179 7.51998 13.3179 8.05247C13.3179 8.58496 13.3179 8.90445 13.3179 9.33044C13.3179 9.75642 13.2285 10.7149 13.139 11.1409C13.0496 11.4604 12.7813 12.2059 12.513 12.6319C12.513 12.6319 11.5292 13.9098 11.4397 14.5488C11.3503 15.1878 11.3503 15.1878 11.3503 15.6138C11.3503 16.0398 11.4397 16.5723 11.4397 16.5723C11.4397 16.5723 10.7243 16.6788 10.3665 16.5723C10.0088 16.4658 9.56158 15.7203 9.47215 15.4008C9.29327 15.0813 9.02497 15.0813 8.84609 15.4008C8.66722 15.8268 8.22004 16.5723 7.8623 16.5723C7.23624 16.6788 5.98414 16.5723 5.08977 16.5723C5.08977 16.5723 5.26865 15.5073 4.9109 15.0813C4.64259 14.7618 4.19541 14.2293 3.9271 13.9098L2.94331 13.1643Z" fill="white"/>
<path d="M2.94331 13.1643C2.675 12.7383 2.40669 11.9929 1.87007 11.0344C1.60176 10.5019 0.796839 9.43693 0.52853 9.01094C0.349658 8.58496 0.349658 8.37196 0.439094 7.94597C0.52853 7.30699 1.06515 6.7745 1.6912 6.7745C2.13838 6.7745 2.58556 7.20049 2.94331 7.51998C3.12218 7.73298 3.39049 8.15897 3.56936 8.37196C3.74823 8.58496 3.74823 8.69145 3.9271 8.90445C4.10598 9.22394 4.19541 9.43693 4.10598 9.01094C4.01654 8.47846 3.9271 7.62648 3.74823 6.7745C3.6588 6.13552 3.56936 6.02902 3.47992 5.60303C3.39049 5.07054 3.30105 4.75105 3.21162 4.21857C3.12218 3.89907 3.03274 3.0471 2.94331 2.62111C2.85387 2.08862 2.85387 1.13014 3.21162 0.704154C3.47992 0.384662 4.01654 0.278165 4.37429 0.49116C4.82147 0.810652 5.08977 1.55613 5.17921 1.87563C5.35808 2.40811 5.53696 3.15359 5.62639 4.00557C5.80526 5.07054 6.07357 6.668 6.07357 6.9875C6.07357 6.56151 5.98414 5.81603 6.07357 5.39004C6.16301 5.07054 6.34188 4.64456 6.69963 4.53806C6.96793 4.43156 7.23624 4.43156 7.50455 4.43156C7.77286 4.53806 8.04117 4.75105 8.22004 4.96405C8.57779 5.60303 8.57779 6.9875 8.57779 6.881C8.66722 6.45501 8.66722 5.60303 8.84609 5.17704C8.93553 4.96405 9.29328 4.75105 9.47215 4.64455C9.74046 4.53806 10.0982 4.53806 10.3665 4.64455C10.5454 4.64455 10.9031 4.96405 10.9926 5.17704C11.1714 5.49653 11.2609 6.56151 11.3503 6.9875C11.3503 7.09399 11.4397 6.56151 11.6186 6.24201C11.9764 5.60303 13.2285 5.39004 13.3179 6.881C13.3179 7.62648 13.3179 7.51998 13.3179 8.05247C13.3179 8.58496 13.3179 8.90445 13.3179 9.33044C13.3179 9.75642 13.2285 10.7149 13.139 11.1409C13.0496 11.4604 12.7813 12.2059 12.513 12.6319C12.513 12.6319 11.5292 13.9098 11.4397 14.5488C11.3503 15.1878 11.3503 15.1878 11.3503 15.6138C11.3503 16.0398 11.4397 16.5723 11.4397 16.5723C11.4397 16.5723 10.7243 16.6788 10.3665 16.5723C10.0088 16.4658 9.56158 15.7203 9.47215 15.4008C9.29328 15.0813 9.02497 15.0813 8.84609 15.4008C8.66722 15.8268 8.22004 16.5723 7.8623 16.5723C7.23624 16.6788 5.98414 16.5723 5.08977 16.5723C5.08977 16.5723 5.26865 15.5073 4.9109 15.0813C4.64259 14.7618 4.19541 14.2293 3.9271 13.9098L2.94331 13.1643Z" stroke="black" stroke-width="0.75" stroke-linecap="round" stroke-linejoin="round"/>
<path d="M10.3665 13.4837V9.86279" stroke="black" stroke-width="0.75" stroke-linecap="round"/>
<path d="M8.57792 13.4837L8.48849 9.86279" stroke="black" stroke-width="0.75" stroke-linecap="round"/>
<path d="M6.78881 9.86279V13.4837" stroke="black" stroke-width="0.75" stroke-linecap="round"/>
</svg>
