<svg width="84" height="28" viewBox="0 0 84 28" fill="none" xmlns="http://www.w3.org/2000/svg">
<g clip-path="url(#clip0_0_27)">
<path d="M36.4003 27.596H29.5957L33.8518 0.491211H40.656L36.4003 27.596Z" fill="#D98C33"/>
<path d="M61.0672 1.15396C59.725 0.605531 57.5962 0 54.964 0C48.2442 0 43.5123 3.69067 43.4832 8.96721C43.4274 12.8602 46.8712 15.0225 49.4469 16.3206C52.0795 17.647 52.9744 18.5127 52.9744 19.695C52.9476 21.5109 50.8471 22.3479 48.888 22.3479C46.1713 22.3479 44.7156 21.9163 42.5035 20.9061L41.6075 20.473L40.6553 26.5575C42.2512 27.3063 45.1915 27.9709 48.2442 28C55.3841 28 60.0324 24.3664 60.0874 18.7435C60.1146 15.6579 58.2961 13.2937 54.3757 11.3617C51.9958 10.1215 50.5382 9.2853 50.5382 8.01637C50.5662 6.8628 51.771 5.68125 54.4576 5.68125C56.6697 5.62338 58.295 6.17104 59.5263 6.71908L60.1418 7.0069L61.0672 1.15396Z" fill="#D98C33"/>
<path d="M70.1108 17.9937C70.6712 16.4366 72.8275 10.41 72.8275 10.41C72.7992 10.4679 73.3868 8.82415 73.7228 7.81506L74.1983 10.1506C74.1983 10.1506 75.4869 16.6385 75.7667 17.9937C74.7033 17.9937 71.4549 17.9937 70.1108 17.9937ZM78.5102 0.491211H73.2469C71.6238 0.491211 70.3906 0.981 69.6904 2.7401L59.583 27.5956H66.7229C66.7229 27.5956 67.8983 24.2502 68.151 23.5297C68.9342 23.5297 75.8799 23.5297 76.8875 23.5297C77.0829 24.4813 77.6994 27.5956 77.6994 27.5956H83.9998L78.5102 0.491211Z" fill="#D98C33"/>
<path d="M23.9122 0.491211L17.2483 18.9741L16.5201 15.2255C15.2881 10.9002 11.4242 6.20082 7.1123 3.86417L13.2162 27.5672H20.4119L31.1075 0.491211H23.9122Z" fill="#D98C33"/>
<path d="M11.0599 0.491211H0.112002L0 1.03887C8.54006 3.28815 14.196 8.70994 16.5197 15.2267L14.1398 2.76961C13.748 1.03849 12.5439 0.548315 11.0599 0.491211Z" fill="#D98C33"/>
</g>
<defs>
<clipPath id="clip0_0_27">
<rect width="84" height="28" fill="white"/>
</clipPath>
</defs>
</svg>
