<svg width="14" height="16" viewBox="0 0 14 16" fill="none" xmlns="http://www.w3.org/2000/svg">
<path d="M2.90219 12.3802C2.63763 11.9801 2.37307 11.2801 1.84395 10.38C1.57939 9.87995 0.785708 8.87986 0.521147 8.47983C0.344774 8.07979 0.344773 7.87977 0.43296 7.47973C0.521147 6.87968 1.05027 6.37963 1.66757 6.37963C2.10851 6.37963 2.54944 6.77967 2.90219 7.0797C3.07856 7.27972 3.34312 7.67975 3.5195 7.87977C3.69587 8.07979 3.69587 8.1798 3.87225 8.37982C4.04862 8.67984 4.13681 8.87986 4.04862 8.47983C3.96043 7.97978 3.87225 7.17971 3.69587 6.37963C3.60768 5.77958 3.5195 5.67957 3.43131 5.27953C3.34312 4.77949 3.25494 4.47946 3.16675 3.97942C3.07856 3.67939 2.99038 2.87931 2.90219 2.47928C2.814 1.97923 2.814 1.07915 3.16675 0.679114C3.43131 0.379086 3.96043 0.279077 4.31318 0.479096C4.75411 0.779123 5.01867 1.47919 5.10686 1.77921C5.28323 2.27926 5.45961 2.97932 5.54779 3.7794C5.72417 4.77949 5.98873 6.27963 5.98873 6.57965C5.98873 6.17962 5.90054 5.47955 5.98873 5.07952C6.07692 4.77949 6.25329 4.37945 6.60604 4.27944C6.8706 4.17943 7.13516 4.17943 7.39972 4.17943C7.66428 4.27944 7.92884 4.47946 8.10521 4.67948C8.45796 5.27953 8.45796 6.57965 8.45796 6.47964C8.54615 6.07961 8.54615 5.27953 8.72252 4.8795C8.81071 4.67948 9.16345 4.47946 9.33983 4.37945C9.60439 4.27944 9.95714 4.27944 10.2217 4.37945C10.3981 4.37945 10.7508 4.67948 10.839 4.8795C11.0154 5.17952 11.1036 6.17962 11.1918 6.57965C11.1918 6.67966 11.2799 6.17962 11.4563 5.87959C11.8091 5.27953 13.0437 5.07952 13.1319 6.47964C13.1319 7.17971 13.1319 7.0797 13.1319 7.57974C13.1319 8.07979 13.1319 8.37982 13.1319 8.77985C13.1319 9.17989 13.0437 10.08 12.9555 10.48C12.8673 10.78 12.6027 11.4801 12.3382 11.8801C12.3382 11.8801 11.3681 13.0802 11.2799 13.6803C11.1917 14.2804 11.1918 14.2804 11.1918 14.6804C11.1918 15.0804 11.2799 15.5805 11.2799 15.5805C11.2799 15.5805 10.5744 15.6805 10.2217 15.5805C9.86895 15.4805 9.42801 14.7804 9.33983 14.4804C9.16345 14.1803 8.89889 14.1803 8.72252 14.4804C8.54615 14.8804 8.10521 15.5805 7.75246 15.5805C7.13516 15.6805 5.90054 15.5805 5.01867 15.5805C5.01867 15.5805 5.19505 14.5804 4.8423 14.1803C4.57774 13.8803 4.13681 13.3803 3.87225 13.0802L2.90219 12.3802Z" fill="white"/>
<path d="M2.90219 12.3802C2.63763 11.9801 2.37307 11.2801 1.84395 10.38C1.57939 9.87995 0.785708 8.87986 0.521147 8.47983C0.344774 8.07979 0.344773 7.87977 0.43296 7.47974C0.521147 6.87968 1.05027 6.37963 1.66757 6.37963C2.10851 6.37963 2.54944 6.77967 2.90219 7.0797C3.07856 7.27972 3.34312 7.67975 3.5195 7.87977C3.69587 8.07979 3.69587 8.1798 3.87225 8.37982C4.04862 8.67984 4.13681 8.87986 4.04862 8.47983C3.96043 7.97978 3.87225 7.17971 3.69587 6.37963C3.60768 5.77958 3.5195 5.67957 3.43131 5.27953C3.34312 4.77949 3.25494 4.47946 3.16675 3.97942C3.07856 3.67939 2.99038 2.87931 2.90219 2.47928C2.814 1.97923 2.814 1.07915 3.16675 0.679114C3.43131 0.379086 3.96043 0.279077 4.31318 0.479096C4.75411 0.779123 5.01867 1.47919 5.10686 1.77921C5.28323 2.27926 5.45961 2.97932 5.54779 3.7794C5.72417 4.77949 5.98873 6.27963 5.98873 6.57965C5.98873 6.17962 5.90054 5.47955 5.98873 5.07952C6.07692 4.77949 6.25329 4.37945 6.60604 4.27944C6.8706 4.17943 7.13516 4.17943 7.39972 4.17943C7.66428 4.27944 7.92884 4.47946 8.10521 4.67948C8.45796 5.27953 8.45796 6.57965 8.45796 6.47964C8.54615 6.07961 8.54615 5.27953 8.72252 4.8795C8.81071 4.67948 9.16345 4.47946 9.33983 4.37945C9.60439 4.27944 9.95714 4.27944 10.2217 4.37945C10.3981 4.37945 10.7508 4.67948 10.839 4.8795C11.0154 5.17952 11.1036 6.17962 11.1918 6.57965C11.1918 6.67966 11.2799 6.17962 11.4563 5.87959C11.8091 5.27953 13.0437 5.07952 13.1319 6.47964C13.1319 7.17971 13.1319 7.0797 13.1319 7.57974C13.1319 8.07979 13.1319 8.37982 13.1319 8.77985C13.1319 9.17989 13.0437 10.08 12.9555 10.48C12.8673 10.78 12.6027 11.4801 12.3382 11.8801C12.3382 11.8801 11.3681 13.0802 11.2799 13.6803C11.1917 14.2804 11.1918 14.2804 11.1918 14.6804C11.1918 15.0804 11.2799 15.5805 11.2799 15.5805C11.2799 15.5805 10.5744 15.6805 10.2217 15.5805C9.86895 15.4805 9.42801 14.7804 9.33983 14.4804C9.16345 14.1803 8.89889 14.1803 8.72252 14.4804C8.54615 14.8804 8.10521 15.5805 7.75246 15.5805C7.13516 15.6805 5.90054 15.5805 5.01867 15.5805C5.01867 15.5805 5.19505 14.5804 4.8423 14.1803C4.57774 13.8803 4.13681 13.3803 3.87225 13.0802L2.90219 12.3802Z" stroke="black" stroke-width="0.75" stroke-linecap="round" stroke-linejoin="round"/>
<path d="M10.2216 12.6812V9.28088" stroke="black" stroke-width="0.75" stroke-linecap="round"/>
<path d="M8.45809 12.6812L8.36991 9.28088" stroke="black" stroke-width="0.75" stroke-linecap="round"/>
<path d="M6.69446 9.28088V12.6812" stroke="black" stroke-width="0.75" stroke-linecap="round"/>
</svg>
